<svg xmlns="http://www.w3.org/2000/svg" viewBox="0 0 512 512">
  <rect width="512" height="512" rx="64" fill="#ECEFF1"/>
  <!-- 성벽 몸체와 성가퀴(여장, 배틀먼트) -->
  <path d="M50 200 L110 200 L110 230 L170 230 L170 200 L230 200 L230 230 L290 230 L290 200 L350 200 L350 230 L410 230 L410 200 L462 200 L462 450 L50 450 Z" fill="#607D8B" stroke="#263238" stroke-width="14"/>
  <!-- 성벽 석축 돌무늬선 -->
  <line x1="50" y1="280" x2="462" y2="280" stroke="#37474F" stroke-width="8"/>
  <line x1="50" y1="360" x2="462" y2="360" stroke="#37474F" stroke-width="8"/>
  <!-- 웅장한 아치형 무지개 성문(홍예문) -->
  <path d="M190 450 L190 340 Q256 280 322 340 L322 450 Z" fill="#263238" stroke="#FFD54F" stroke-width="8"/>
  <!-- 성루 누각 지붕 -->
  <path d="M120 120 Q256 60 392 120 L370 170 Q256 120 142 170 Z" fill="#D32F2F" stroke="#3E2723" stroke-width="10"/>
</svg>